# AST/ASF file generated using VICON BodyLanguage
# -----------------------------------------------
:version 1.10
:name VICON
:units
  mass 1.0
  length 0.45
  angle deg
:documentation
   .ast/.asf automatically generated from VICON data using
   VICON BodyBuilder and BodyLanguage model FoxedUp or BRILLIANT.MOD
:root
   order TX TY TZ RX RY RZ
   axis XYZ
   position 0 0 0  
   orientation 0 0 0 
:bonedata
  begin
     id 1 
     name lhipjoint
     direction 0.677091 -0.635792 0.370561 
     length 2.74323 
     axis 0 0 0  XYZ
  end
  begin
     id 2 
     name lfemur
     direction 0.34202 -0.939693 0  
     length 7.44995  
     axis 0 0 20  XYZ
    dof rx ry rz
    limits (-160.0 20.0)
           (-70.0 70.0)
           (-60.0 70.0)
  end
  begin
     id 3 
     name ltibia
     direction 0.34202 -0.939693 0   
     length 7.34467   
     axis 0 0 20   XYZ
    dof rx
    limits (-10.0 170.0)
  end
  begin
     id 4 
     name lfoot
     direction 0.101953 -0.280114 0.954537   
     length 1.72105   
     axis -90 7.62852e-016 20   XYZ
    dof rx rz
    limits (-45.0 90.0)
           (-70.0 20.0)
  end
  begin
     id 5 
     name ltoes
     direction 1.53537e-011 -4.21915e-011 1   
     length 0.865872   
     axis -90 7.62852e-016 20   XYZ
    dof rx
    limits (-90.0 20.0)
  end
  begin
     id 6 
     name rhipjoint
     direction -0.695735 -0.620586 0.361699   
     length 2.81045  
     axis 0 0 0  XYZ 
  end
  begin
     id 7 
     name rfemur
     direction -0.34202 -0.939693 0   
     length 7.29387   
     axis 0 0 -20   XYZ
    dof rx ry rz
    limits (-160.0 20.0)
           (-70.0 70.0)
           (-70.0 60.0)
  end
  begin
     id 8 
     name rtibia
     direction -0.34202 -0.939693 0   
     length 7.44935   
     axis 0 0 -20   XYZ
    dof rx
    limits (-10.0 170.0)
 end
 begin
     id 9 
     name rfoot
     direction -0.104163 -0.286184 0.952496   
     length 1.77731  
     axis -90 -7.62852e-016 -20   XYZ
    dof rx rz
    limits (-45.0 90.0)
           (-20.0 70.0)
  end
  begin
     id 10 
     name rtoes
     direction -1.5355e-011 -4.21888e-011 1   
     length 0.892424   
     axis -90 -7.62852e-016 -20   XYZ
    dof rx
    limits (-90.0 20.0)
  end
  begin
     id 11 
     name lowerback
     direction 0.0100202 0.997226 -0.0737589   
     length 2.16892   
     axis 0 0 0   XYZ
    dof rx ry rz
    limits (-20.0 45.0)
           (-30.0 30.0)
           (-30.0 30.0)
  end
  begin
     id 12 
     name upperback
     direction 0.00432398 0.999988 -0.00215019   
     length 2.17326   
     axis 0 0 0   XYZ
    dof rx ry rz
    limits (-20.0 45.0)
           (-30.0 30.0)
           (-30.0 30.0)
  end
  begin
     id 13 
     name thorax
     direction -0.00195047 0.999485 0.0320434   
     length 2.18139   
     axis 0 0 0   XYZ
    dof rx ry rz
    limits (-20.0 45.0)
           (-30.0 30.0)
           (-30.0 30.0)
  end
  begin
     id 14 
     name lowerneck
     direction 0.00782762 0.986241 0.165128   
     length 1.88415   
     axis 0 0 0   XYZ
    dof rx ry rz
    limits (-20.0 45.0)
           (-30.0 30.0)
           (-30.0 30.0)
  end
  begin
     id 15 
     name upperneck
     direction 0.00988667 0.981098 -0.193258   
     length 1.9242   
     axis 0 0 0   XYZ
    dof rx ry rz
    limits (-20.0 45.0)
           (-30.0 30.0)
           (-30.0 30.0)
  end
  begin
     id 16
     name head
     direction 0.00252199 0.996513 -0.0833958  
     length 1.93887  
     axis 0 0 0   XYZ
    dof rx ry rz
    limits (-20.0 45.0)
           (-30.0 30.0)
           (-30.0 30.0)
  end
  begin
     id 17 
     name lclavicle
     direction 0.929492 0.368193 -0.0218667  
     length 3.5955  
     axis 0 0 0   XYZ
    dof ry rz
    limits (-20.0 10.0)
           (0.0 20.0)
  end
  begin
     id 18 
     name lhumerus
     direction 1 -4.48972e-011 1.41911e-027   
     length 5.2795   
     axis 180 -30 -90   XYZ
    dof rx ry rz
    limits (-60.0 90.0)
           (-90.0 90.0)
           (-90.0 90.0)
  end
  begin
     id 19
     name lradius
     direction 1 -4.48963e-011 7.05772e-027   
     length 3.53504   
     axis 180 -30 -90   XYZ
    dof rx
    limits (-10.0 170.0)
  end
  begin
     id 20
     name lwrist
     direction 1 -4.48957e-011 9.54866e-027   
     length 1.76752   
     axis -7.69462e-015 90 90   XYZ
    dof ry
    limits (-180.0 0.0)
 end
  begin
     id 21 
     name lhand
     direction 1 -4.48979e-011 1.90973e-026   
     length 0.667948   
     axis -1.21857e-014 90 90   XYZ
    dof rx rz
    limits (-90.0 90.0)
           (-45.0 45.0)
  end
  begin
     id 22 
     name lfingers
     direction 1 -4.48987e-011 3.81946e-026   
     length 0.538517   
     axis -2.43714e-014 90 90   XYZ
    dof rx
    limits (0.0 90.0)
  end
  begin
     id 23
     name lthumb
     direction 0.707107 -6.34962e-011 0.707107   
     length 0.773206   
     axis -90 45 2.85299e-015   XYZ
    dof rx rz
    limits (-45.0 45.0)
           (-45.0 45.0)
  end
  begin
     id 24 
     name rclavicle
     direction -0.898763 0.414256 -0.143584   
     length 3.5176  
     axis 0 0 0   XYZ 
    dof ry rz
    limits (-10.0 20.0)
           (-20.0 0.0)
  end
  begin
     id 25 
     name rhumerus
     direction -1 -4.48971e-011 1.129e-027  
     length 5.25035   
     axis 180 30 90   XYZ
    dof rx ry rz
    limits (-90.0 60.0)
           (-90.0 90.0)
           (-90.0 90.0)
  end
  begin
     id 26 
     name rradius
     direction -1 -4.48955e-011 6.34664e-027   
     length 3.58884   
     axis 180 30 90   XYZ
    dof rx
    limits (-10.0 170.0)
  end
  begin
     id 27 
     name rwrist
     direction -1 -4.48966e-011 9.54866e-027   
     length 1.79442   
     axis -7.69462e-015 -90 -90   XYZ
    dof ry
    limits (-180.0 0.0)
  end
  begin
     id 28
     name rhand
     direction -1 -4.48973e-011 1.90973e-026   
     length 0.779235   
     axis -1.21857e-014 -90 -90   XYZ
    dof rx rz
    limits (-90.0 90.0)
           (-45.0 45.0)
  end
  begin
     id 29
     name rfingers
     direction -1 -4.48984e-011 3.81946e-026   
     length 0.62824   
     axis -2.43714e-014 -90 -90   XYZ
    dof rx
    limits (0.0 90.0)
  end
  begin
     id 30
     name rthumb
     direction -0.707107 -6.34968e-011 0.707107   
     length 0.90203   
     axis -90 -45 -2.85299e-015   XYZ
    dof rx rz
    limits (-45.0 45.0)
           (-45.0 45.0)
  end
:hierarchy
  begin
    root lhipjoint rhipjoint lowerback
    lhipjoint lfemur
    lfemur ltibia
    ltibia lfoot
    lfoot ltoes
    rhipjoint rfemur
    rfemur rtibia
    rtibia rfoot
    rfoot rtoes
    lowerback upperback
    upperback thorax
    thorax lowerneck lclavicle rclavicle
    lowerneck upperneck
    upperneck head
    lclavicle lhumerus
    lhumerus lradius
    lradius lwrist
    lwrist lhand lthumb
    lhand lfingers
    rclavicle rhumerus
    rhumerus rradius
    rradius rwrist
    rwrist rhand rthumb
    rhand rfingers
  end

#!OML:ASF I:\Random Stuff\random\construction\7_22_03\Session 2\subj1.ASF
:FULLY-SPECIFIED
:DEGREES
165
root -2.54237 17.8066 4.43876 0.300508 56.4002 -8.06652
lowerback 5.0545 -0.220403 -2.62688
upperback -1.61528 -0.457485 0.355616
thorax -4.48497 -0.147841 1.88319
lowerneck -19.9721 -3.91479 -2.65178
upperneck 40.2666 -5.06496 2.09794
head 18.7889 -1.83877 0.480117
rclavicle -7.03698e-014 -1.43125e-014
rhumerus -36.3975 -13.3528 -69.0833
rradius 73.4195
rwrist -8.86489
rhand -30.6006 21.7555
rfingers 7.12502
rthumb -3.89742 -8.18862
lclavicle -7.03698e-014 -1.43125e-014
lhumerus -18.9648 -4.7031 78.4225
lradius 65.9031
lwrist 44.1847
lhand -13.7394 64.5245
lfingers 7.12502
lthumb -167.62 85.8621
rfemur -15.004 9.6573 17.7047
rtibia 13.9146
rfoot -5.27422 -6.77589
rtoes -5.56198
lfemur -17.4351 -7.73365 -13.4727
ltibia 23.5869
lfoot -11.7062 8.22176
ltoes -18.915
166
root -2.50971 17.7919 4.51173 0.746452 56.7083 -7.37774
lowerback 5.02672 -0.202283 -2.62245
upperback -1.57267 -0.437233 0.222167
thorax -4.42684 -0.141098 1.74023
lowerneck -19.8017 -4.09034 -2.93073
upperneck 40.2285 -5.26146 2.19401
head 18.7448 -1.94626 0.536055
rclavicle -1.99779e-014 -7.15625e-015
rhumerus -35.4573 -12.9463 -69.2051
rradius 74.1942
rwrist -9.00656
rhand -30.6067 21.5955
rfingers 7.12502
rthumb -3.90331 -8.34852
lclavicle -1.99779e-014 -7.15625e-015
lhumerus -18.4459 -4.99905 78.3543
lradius 66.5405
lwrist 43.2636
lhand -13.6044 64.6184
lfingers 7.12502
lthumb -167.49 85.7761
rfemur -14.6149 9.76591 17.5425
rtibia 14.1725
rfoot -5.80504 -7.59901
rtoes -8.46756
lfemur -17.0165 -7.9136 -13.823
ltibia 23.35
lfoot -11.7797 8.03727
ltoes -19.0768
167
root -2.47323 17.7661 4.58622 1.18611 56.9072 -6.65865
lowerback 4.96394 -0.156564 -2.60057
upperback -1.53243 -0.377761 0.0884478
thorax -4.35321 -0.11545 1.58372
lowerneck -19.5673 -4.23882 -3.06655
upperneck 40.1623 -5.40056 2.11573
head 18.6491 -2.03572 0.497139
rclavicle 6.85807e-015 1.59028e-015
rhumerus -34.5201 -12.3088 -69.3071
rradius 74.8058
rwrist -8.93523
rhand -30.3689 21.3299
rfingers 7.12502
rthumb -3.67368 -8.61814
lclavicle 6.85807e-015 1.59028e-015
lhumerus -18.0517 -5.25752 78.2716
lradius 67.1874
lwrist 42.3466
lhand -13.6597 64.6399
lfingers 7.12502
lthumb -167.543 85.7513
rfemur -14.0575 9.29538 17.6007
rtibia 14.1213
rfoot -5.51187 -7.99844
rtoes -18.9225
lfemur -16.5997 -8.22935 -14.1901
ltibia 23.2814
lfoot -11.836 8.13859
ltoes -19.8018
168
root -2.43418 17.7521 4.65947 1.56303 57.0522 -5.99304
lowerback 4.85836 -0.0763607 -2.51508
upperback -1.47221 -0.266315 -0.0437276
thorax -4.2367 -0.0662881 1.38874
lowerneck -19.3627 -4.40148 -3.18011
upperneck 40.1538 -5.58342 2.0675
head 18.5991 -2.13228 0.459815
rclavicle -3.08613e-014 0
rhumerus -33.4393 -11.5832 -69.4188
rradius 75.1179
rwrist -8.62554
rhand -30.0929 20.9576
rfingers 7.12502
rthumb -3.40716 -8.99492
lclavicle -3.08613e-014 0
lhumerus -17.7993 -5.51054 78.2872
lradius 67.8583
lwrist 41.8143
lhand -13.8869 64.3224
lfingers 7.12502
lthumb -167.762 86.0557
rfemur -13.412 8.98353 17.5929
rtibia 13.8458
rfoot -5.14537 -8.20702
rtoes -24.7561
lfemur -16.1368 -8.69835 -14.5268
ltibia 23.2925
lfoot -11.9731 8.41992
ltoes -19.861
169
root -2.39804 17.7559 4.72962 1.84561 57.1784 -5.55167
lowerback 4.68968 0.00551543 -2.32857
upperback -1.41565 -0.14216 -0.112534
thorax -4.08794 -0.0126596 1.20199
lowerneck -19.2536 -4.54606 -3.34303
upperneck 40.1904 -5.75844 2.11459
head 18.6099 -2.21723 0.476729
rclavicle -1.02871e-014 -3.18055e-015
rhumerus -32.1862 -10.6929 -69.614
rradius 75.1867
rwrist -8.29369
rhand -29.8489 20.3463
rfingers 7.12502
rthumb -3.17149 -9.60984
lclavicle -1.02871e-014 -3.18055e-015
lhumerus -17.6451 -5.63324 78.425
lradius 68.559
lwrist 41.4919
lhand -14.1665 63.6329
lfingers 7.12502
lthumb -168.031 86.7293
rfemur -12.884 9.17291 17.4989
rtibia 13.5584
rfoot -5.19526 -8.47762
rtoes -23.6644
lfemur -15.7393 -9.18172 -14.7114
ltibia 23.2658
lfoot -12.2079 8.7294
ltoes -19.4923
170
root -2.35993 17.7638 4.79715 1.93501 57.2168 -5.46324
lowerback 4.41098 0.0858938 -1.96382
upperback -1.38241 -0.00443632 -0.0918131
thorax -3.90039 0.0446889 1.00739
lowerneck -19.1808 -4.67349 -3.59501
upperneck 40.2233 -5.90439 2.23744
head 18.6368 -2.2936 0.550614
rclavicle 1.04809e-013 1.35174e-014
rhumerus -30.8666 -9.51468 -69.7798
rradius 75.0546
rwrist -8.03309
rhand -29.4708 19.5183
rfingers 7.12502
rthumb -2.80643 -10.443
lclavicle 1.04809e-013 1.35174e-014
lhumerus -17.5473 -5.51694 78.5939
lradius 69.2124
lwrist 40.732
lhand -14.0643 63.1366
lfingers 7.12502
lthumb -167.933 87.2314
rfemur -12.5356 9.37986 17.5558
rtibia 13.3785
rfoot -5.43851 -8.6108
rtoes -21.6807
lfemur -15.3997 -9.61532 -14.6732
ltibia 23.1416
lfoot -12.5185 9.07367
ltoes -19.5281
